<mxfile host="app.diagrams.net" agent="Mozilla/5.0 (Windows NT 10.0; Win64; x64) AppleWebKit/537.36 (KHTML, like Gecko) Chrome/128.0.0.0 Safari/537.36" version="24.7.14">
  <diagram id="C5RBs43oDa-KdzZeNtuy" name="Page-1">
    <mxGraphModel dx="1683" dy="1049" grid="0" gridSize="10" guides="1" tooltips="1" connect="1" arrows="1" fold="1" page="0" pageScale="1" pageWidth="827" pageHeight="1169" background="#000000" math="0" shadow="0">
      <root>
        <mxCell id="WIyWlLk6GJQsqaUBKTNV-0" />
        <mxCell id="WIyWlLk6GJQsqaUBKTNV-1" parent="WIyWlLk6GJQsqaUBKTNV-0" />
        <mxCell id="DVn4Nkv9jr0RJya4vz0k-36" style="edgeStyle=orthogonalEdgeStyle;rounded=0;orthogonalLoop=1;jettySize=auto;html=1;labelBackgroundColor=none;strokeColor=#23445D;fontColor=default;" edge="1" parent="WIyWlLk6GJQsqaUBKTNV-1" source="WIyWlLk6GJQsqaUBKTNV-3" target="DVn4Nkv9jr0RJya4vz0k-37">
          <mxGeometry relative="1" as="geometry">
            <mxPoint x="110" y="390.0000000000001" as="targetPoint" />
          </mxGeometry>
        </mxCell>
        <mxCell id="DVn4Nkv9jr0RJya4vz0k-39" value="" style="edgeStyle=orthogonalEdgeStyle;rounded=0;orthogonalLoop=1;jettySize=auto;html=1;labelBackgroundColor=none;strokeColor=#23445D;fontColor=default;" edge="1" parent="WIyWlLk6GJQsqaUBKTNV-1" source="WIyWlLk6GJQsqaUBKTNV-3" target="DVn4Nkv9jr0RJya4vz0k-38">
          <mxGeometry relative="1" as="geometry" />
        </mxCell>
        <mxCell id="DVn4Nkv9jr0RJya4vz0k-41" value="" style="edgeStyle=orthogonalEdgeStyle;rounded=0;orthogonalLoop=1;jettySize=auto;html=1;labelBackgroundColor=none;strokeColor=#23445D;fontColor=default;" edge="1" parent="WIyWlLk6GJQsqaUBKTNV-1" source="WIyWlLk6GJQsqaUBKTNV-3" target="DVn4Nkv9jr0RJya4vz0k-40">
          <mxGeometry relative="1" as="geometry" />
        </mxCell>
        <mxCell id="DVn4Nkv9jr0RJya4vz0k-43" value="" style="edgeStyle=orthogonalEdgeStyle;rounded=0;orthogonalLoop=1;jettySize=auto;html=1;labelBackgroundColor=none;strokeColor=#23445D;fontColor=default;" edge="1" parent="WIyWlLk6GJQsqaUBKTNV-1" source="WIyWlLk6GJQsqaUBKTNV-3" target="DVn4Nkv9jr0RJya4vz0k-42">
          <mxGeometry relative="1" as="geometry" />
        </mxCell>
        <mxCell id="DVn4Nkv9jr0RJya4vz0k-45" style="edgeStyle=orthogonalEdgeStyle;rounded=0;orthogonalLoop=1;jettySize=auto;html=1;labelBackgroundColor=none;strokeColor=#23445D;fontColor=default;" edge="1" parent="WIyWlLk6GJQsqaUBKTNV-1" source="WIyWlLk6GJQsqaUBKTNV-3" target="DVn4Nkv9jr0RJya4vz0k-46">
          <mxGeometry relative="1" as="geometry">
            <mxPoint x="200" y="410.0000000000001" as="targetPoint" />
          </mxGeometry>
        </mxCell>
        <mxCell id="WIyWlLk6GJQsqaUBKTNV-3" value="Client(Người dùng)" style="rounded=1;whiteSpace=wrap;html=1;fontSize=12;glass=0;strokeWidth=1;shadow=0;labelBackgroundColor=none;fillColor=#182E3E;strokeColor=#FFFFFF;fontColor=#FFFFFF;" parent="WIyWlLk6GJQsqaUBKTNV-1" vertex="1">
          <mxGeometry x="20" y="250" width="180" height="60" as="geometry" />
        </mxCell>
        <mxCell id="DVn4Nkv9jr0RJya4vz0k-47" style="edgeStyle=orthogonalEdgeStyle;rounded=0;orthogonalLoop=1;jettySize=auto;html=1;labelBackgroundColor=none;strokeColor=#23445D;fontColor=default;" edge="1" parent="WIyWlLk6GJQsqaUBKTNV-1" source="DVn4Nkv9jr0RJya4vz0k-37" target="DVn4Nkv9jr0RJya4vz0k-48">
          <mxGeometry relative="1" as="geometry">
            <mxPoint x="30" y="540" as="targetPoint" />
          </mxGeometry>
        </mxCell>
        <mxCell id="DVn4Nkv9jr0RJya4vz0k-37" value="User-Item Matrix" style="rounded=1;whiteSpace=wrap;html=1;labelBackgroundColor=none;fillColor=#182E3E;strokeColor=#FFFFFF;fontColor=#FFFFFF;" vertex="1" parent="WIyWlLk6GJQsqaUBKTNV-1">
          <mxGeometry x="-50" y="410.0000000000001" width="120" height="60" as="geometry" />
        </mxCell>
        <mxCell id="DVn4Nkv9jr0RJya4vz0k-67" value="" style="edgeStyle=orthogonalEdgeStyle;rounded=0;orthogonalLoop=1;jettySize=auto;html=1;labelBackgroundColor=none;strokeColor=#23445D;fontColor=default;" edge="1" parent="WIyWlLk6GJQsqaUBKTNV-1" source="DVn4Nkv9jr0RJya4vz0k-38" target="DVn4Nkv9jr0RJya4vz0k-66">
          <mxGeometry relative="1" as="geometry" />
        </mxCell>
        <mxCell id="DVn4Nkv9jr0RJya4vz0k-68" style="edgeStyle=orthogonalEdgeStyle;rounded=0;orthogonalLoop=1;jettySize=auto;html=1;labelBackgroundColor=none;strokeColor=#23445D;fontColor=default;" edge="1" parent="WIyWlLk6GJQsqaUBKTNV-1" source="DVn4Nkv9jr0RJya4vz0k-38" target="DVn4Nkv9jr0RJya4vz0k-69">
          <mxGeometry relative="1" as="geometry">
            <mxPoint x="210" as="targetPoint" />
          </mxGeometry>
        </mxCell>
        <mxCell id="DVn4Nkv9jr0RJya4vz0k-38" value="Weaknesses" style="rounded=1;whiteSpace=wrap;html=1;fontSize=12;glass=0;strokeWidth=1;shadow=0;labelBackgroundColor=none;fillColor=#182E3E;strokeColor=#FFFFFF;fontColor=#FFFFFF;" vertex="1" parent="WIyWlLk6GJQsqaUBKTNV-1">
          <mxGeometry x="20" y="110" width="180" height="60" as="geometry" />
        </mxCell>
        <mxCell id="DVn4Nkv9jr0RJya4vz0k-63" value="" style="edgeStyle=orthogonalEdgeStyle;rounded=0;orthogonalLoop=1;jettySize=auto;html=1;labelBackgroundColor=none;strokeColor=#23445D;fontColor=default;" edge="1" parent="WIyWlLk6GJQsqaUBKTNV-1" source="DVn4Nkv9jr0RJya4vz0k-40" target="DVn4Nkv9jr0RJya4vz0k-62">
          <mxGeometry relative="1" as="geometry" />
        </mxCell>
        <mxCell id="DVn4Nkv9jr0RJya4vz0k-65" value="" style="edgeStyle=orthogonalEdgeStyle;rounded=0;orthogonalLoop=1;jettySize=auto;html=1;labelBackgroundColor=none;strokeColor=#23445D;fontColor=default;" edge="1" parent="WIyWlLk6GJQsqaUBKTNV-1" source="DVn4Nkv9jr0RJya4vz0k-40" target="DVn4Nkv9jr0RJya4vz0k-64">
          <mxGeometry relative="1" as="geometry" />
        </mxCell>
        <mxCell id="DVn4Nkv9jr0RJya4vz0k-40" value="Strengths" style="rounded=1;whiteSpace=wrap;html=1;fontSize=12;glass=0;strokeWidth=1;shadow=0;labelBackgroundColor=none;fillColor=#182E3E;strokeColor=#FFFFFF;fontColor=#FFFFFF;" vertex="1" parent="WIyWlLk6GJQsqaUBKTNV-1">
          <mxGeometry x="280" y="250" width="180" height="60" as="geometry" />
        </mxCell>
        <mxCell id="DVn4Nkv9jr0RJya4vz0k-55" style="edgeStyle=orthogonalEdgeStyle;rounded=0;orthogonalLoop=1;jettySize=auto;html=1;labelBackgroundColor=none;strokeColor=#23445D;fontColor=default;" edge="1" parent="WIyWlLk6GJQsqaUBKTNV-1" source="DVn4Nkv9jr0RJya4vz0k-42" target="DVn4Nkv9jr0RJya4vz0k-56">
          <mxGeometry relative="1" as="geometry">
            <mxPoint x="-190" y="360" as="targetPoint" />
          </mxGeometry>
        </mxCell>
        <mxCell id="DVn4Nkv9jr0RJya4vz0k-57" style="edgeStyle=orthogonalEdgeStyle;rounded=0;orthogonalLoop=1;jettySize=auto;html=1;labelBackgroundColor=none;strokeColor=#23445D;fontColor=default;" edge="1" parent="WIyWlLk6GJQsqaUBKTNV-1" source="DVn4Nkv9jr0RJya4vz0k-42" target="DVn4Nkv9jr0RJya4vz0k-58">
          <mxGeometry relative="1" as="geometry">
            <mxPoint x="-150" y="210" as="targetPoint" />
          </mxGeometry>
        </mxCell>
        <mxCell id="DVn4Nkv9jr0RJya4vz0k-60" value="" style="edgeStyle=orthogonalEdgeStyle;rounded=0;orthogonalLoop=1;jettySize=auto;html=1;labelBackgroundColor=none;strokeColor=#23445D;fontColor=default;" edge="1" parent="WIyWlLk6GJQsqaUBKTNV-1" source="DVn4Nkv9jr0RJya4vz0k-42" target="DVn4Nkv9jr0RJya4vz0k-59">
          <mxGeometry relative="1" as="geometry" />
        </mxCell>
        <mxCell id="DVn4Nkv9jr0RJya4vz0k-42" value="Model-Based" style="whiteSpace=wrap;html=1;rounded=1;glass=0;strokeWidth=1;shadow=0;labelBackgroundColor=none;fillColor=#182E3E;strokeColor=#FFFFFF;fontColor=#FFFFFF;" vertex="1" parent="WIyWlLk6GJQsqaUBKTNV-1">
          <mxGeometry x="-210" y="250" width="120" height="60" as="geometry" />
        </mxCell>
        <mxCell id="DVn4Nkv9jr0RJya4vz0k-50" value="" style="edgeStyle=orthogonalEdgeStyle;rounded=0;orthogonalLoop=1;jettySize=auto;html=1;labelBackgroundColor=none;strokeColor=#23445D;fontColor=default;" edge="1" parent="WIyWlLk6GJQsqaUBKTNV-1" source="DVn4Nkv9jr0RJya4vz0k-46" target="DVn4Nkv9jr0RJya4vz0k-49">
          <mxGeometry relative="1" as="geometry" />
        </mxCell>
        <mxCell id="DVn4Nkv9jr0RJya4vz0k-51" style="edgeStyle=orthogonalEdgeStyle;rounded=0;orthogonalLoop=1;jettySize=auto;html=1;labelBackgroundColor=none;strokeColor=#23445D;fontColor=default;" edge="1" parent="WIyWlLk6GJQsqaUBKTNV-1" source="DVn4Nkv9jr0RJya4vz0k-46" target="DVn4Nkv9jr0RJya4vz0k-52">
          <mxGeometry relative="1" as="geometry">
            <mxPoint x="290" y="510" as="targetPoint" />
          </mxGeometry>
        </mxCell>
        <mxCell id="DVn4Nkv9jr0RJya4vz0k-46" value="Memory-Based&amp;nbsp;" style="rounded=1;whiteSpace=wrap;html=1;labelBackgroundColor=none;fillColor=#182E3E;strokeColor=#FFFFFF;fontColor=#FFFFFF;" vertex="1" parent="WIyWlLk6GJQsqaUBKTNV-1">
          <mxGeometry x="170" y="410.0000000000001" width="120" height="60" as="geometry" />
        </mxCell>
        <mxCell id="DVn4Nkv9jr0RJya4vz0k-48" value="Xây dựng ma trận người dùng và sản phẩm" style="rounded=0;whiteSpace=wrap;html=1;labelBackgroundColor=none;fillColor=#182E3E;strokeColor=#FFFFFF;fontColor=#FFFFFF;" vertex="1" parent="WIyWlLk6GJQsqaUBKTNV-1">
          <mxGeometry x="-50" y="510" width="120" height="60" as="geometry" />
        </mxCell>
        <mxCell id="DVn4Nkv9jr0RJya4vz0k-49" value="KNN(K-Nearest Neighbors)" style="rounded=1;whiteSpace=wrap;html=1;arcSize=0;labelBackgroundColor=none;fillColor=#182E3E;strokeColor=#FFFFFF;fontColor=#FFFFFF;" vertex="1" parent="WIyWlLk6GJQsqaUBKTNV-1">
          <mxGeometry x="130" y="510.0000000000001" width="120" height="60" as="geometry" />
        </mxCell>
        <mxCell id="DVn4Nkv9jr0RJya4vz0k-52" value="Tính điểm tương đồng giữa người dùng hoặc sản phẩm" style="rounded=0;whiteSpace=wrap;html=1;labelBackgroundColor=none;fillColor=#182E3E;strokeColor=#FFFFFF;fontColor=#FFFFFF;" vertex="1" parent="WIyWlLk6GJQsqaUBKTNV-1">
          <mxGeometry x="310" y="510" width="160" height="60" as="geometry" />
        </mxCell>
        <mxCell id="DVn4Nkv9jr0RJya4vz0k-56" value="SVD(Singgular value Decomposition)" style="rounded=0;whiteSpace=wrap;html=1;labelBackgroundColor=none;fillColor=#182E3E;strokeColor=#FFFFFF;fontColor=#FFFFFF;" vertex="1" parent="WIyWlLk6GJQsqaUBKTNV-1">
          <mxGeometry x="-270" y="350" width="120" height="60" as="geometry" />
        </mxCell>
        <mxCell id="DVn4Nkv9jr0RJya4vz0k-58" value="Matrix Factorization" style="rounded=0;whiteSpace=wrap;html=1;labelBackgroundColor=none;fillColor=#182E3E;strokeColor=#FFFFFF;fontColor=#FFFFFF;" vertex="1" parent="WIyWlLk6GJQsqaUBKTNV-1">
          <mxGeometry x="-210" y="130" width="120" height="60" as="geometry" />
        </mxCell>
        <mxCell id="DVn4Nkv9jr0RJya4vz0k-59" value="Học từ dữ liệu lịch sử người dùng" style="whiteSpace=wrap;html=1;rounded=1;glass=0;strokeWidth=1;shadow=0;arcSize=0;labelBackgroundColor=none;fillColor=#182E3E;strokeColor=#FFFFFF;fontColor=#FFFFFF;" vertex="1" parent="WIyWlLk6GJQsqaUBKTNV-1">
          <mxGeometry x="-380" y="250" width="120" height="60" as="geometry" />
        </mxCell>
        <mxCell id="DVn4Nkv9jr0RJya4vz0k-62" value="Không yêu cầu thông tin về sản phẩm" style="whiteSpace=wrap;html=1;rounded=1;glass=0;strokeWidth=1;shadow=0;labelBackgroundColor=none;fillColor=#182E3E;strokeColor=#FFFFFF;fontColor=#FFFFFF;" vertex="1" parent="WIyWlLk6GJQsqaUBKTNV-1">
          <mxGeometry x="310" y="350" width="120" height="60" as="geometry" />
        </mxCell>
        <mxCell id="DVn4Nkv9jr0RJya4vz0k-64" value="Hiệu quả với dữ liệu lịch sử phong phú" style="whiteSpace=wrap;html=1;rounded=1;glass=0;strokeWidth=1;shadow=0;labelBackgroundColor=none;fillColor=#182E3E;strokeColor=#FFFFFF;fontColor=#FFFFFF;" vertex="1" parent="WIyWlLk6GJQsqaUBKTNV-1">
          <mxGeometry x="310" y="110" width="120" height="60" as="geometry" />
        </mxCell>
        <mxCell id="DVn4Nkv9jr0RJya4vz0k-66" value="Vấn đề lạnh (Cold start)" style="whiteSpace=wrap;html=1;rounded=1;glass=0;strokeWidth=1;shadow=0;labelBackgroundColor=none;fillColor=#182E3E;strokeColor=#FFFFFF;fontColor=#FFFFFF;" vertex="1" parent="WIyWlLk6GJQsqaUBKTNV-1">
          <mxGeometry x="-90" y="-30" width="120" height="60" as="geometry" />
        </mxCell>
        <mxCell id="DVn4Nkv9jr0RJya4vz0k-69" value="Đòi hỏi nhiều Dữ liệu" style="rounded=1;whiteSpace=wrap;html=1;labelBackgroundColor=none;fillColor=#182E3E;strokeColor=#FFFFFF;fontColor=#FFFFFF;" vertex="1" parent="WIyWlLk6GJQsqaUBKTNV-1">
          <mxGeometry x="180" y="-30" width="120" height="60" as="geometry" />
        </mxCell>
      </root>
    </mxGraphModel>
  </diagram>
</mxfile>
